<svg xmlns="http://www.w3.org/2000/svg" viewBox="0 0 512 512">
  <rect width="512" height="512" fill="black"/>
  <path d="M417.54 430.23L418.00 434.85Q412.92 435.31 408.31 435.54Q403.69 435.77 398.62 435.77L398.62 435.77Q363.54 435.77 337.69 419.15Q311.85 402.54 291.77 376Q271.69 349.46 256.00 316Q240.31 282.54 226 248.62Q211.69 214.69 197.15 183.77Q182.62 152.85 165.08 131.15L165.08 131.15L165.08 308.38Q165.08 321.77 172.46 330.31Q179.85 338.85 191.85 342.54L191.85 342.54L136 342.54Q161.38 334.69 161.38 308.38L161.38 308.38L161.38 127.00Q145.23 107.62 122.62 94.00Q100.00 80.38 74.15 80.38L74.15 80.38Q64.00 80.38 54.31 82Q44.62 83.62 35.38 85.92L35.38 85.92L34 82.69Q56.15 76.23 78.77 76.23L78.77 76.23Q107.85 76.23 131.38 86.38Q154.92 96.54 174.08 113.62Q193.23 130.69 208.23 153.08Q223.23 175.46 235.46 199.92Q247.69 224.38 258.08 249.31Q268.46 274.23 277.69 296.38L277.69 296.38L359.38 116.38L400.92 116.38Q391.23 119.15 387.77 127.23Q384.31 135.31 384.31 144.54L384.31 144.54L384.31 313Q384.31 322.23 387.54 330.77Q390.77 339.31 400.92 342.54L400.92 342.54L339.54 342.54Q349.69 339.77 352.92 331Q356.15 322.23 356.15 313L356.15 313L356.15 131.15L279.54 300.54Q286.92 319.46 297.08 342.31Q307.23 365.15 321.08 385Q334.92 404.85 353.62 418.23Q372.31 431.62 396.31 431.62L396.31 431.62Q401.85 431.62 407.15 431.38Q412.46 431.15 417.54 430.23L417.54 430.23Z" fill="white"/>
</svg>